<?xml version="1.0" encoding="UTF-8"?>
<svg id="_Слой_2" data-name="Слой 2" xmlns="http://www.w3.org/2000/svg" viewBox="0 0 3000 977.97">
  <defs>
    <style>
      .cls-1 {
        fill: #2a4e96;
      }

      .cls-2 {
        fill: #fff;
      }

      .cls-3 {
        fill: #afcdfb;
      }

      .cls-4 {
        fill: #fcecdb;
      }

      .cls-5 {
        opacity: .9;
      }

      .cls-5, .cls-6 {
        fill: #78acea;
      }

      .cls-7 {
        fill: #f99746;
      }

      .cls-8 {
        fill: #1c468a;
      }

      .cls-9 {
        fill: #2e3552;
      }

      .cls-10 {
        fill: #efcbab;
      }

      .cls-11 {
        fill: #b5453c;
      }

      .cls-12 {
        fill: #2c3a64;
      }

      .cls-13 {
        fill: #ed985f;
      }

      .cls-14 {
        fill: #ed975d;
      }

      .cls-15 {
        fill: #f9ddbf;
      }

      .cls-16 {
        fill: #ed893e;
      }

      .cls-17 {
        fill: #b7d3f3;
      }

      .cls-18 {
        fill: #ed7d2b;
      }

      .cls-19 {
        fill: #ffb27d;
      }

      .cls-20 {
        fill: #c5dcf8;
      }

      .cls-21 {
        fill: #8cbaf1;
      }

      .cls-22 {
        fill: #233862;
      }

      .cls-23 {
        fill: #163560;
      }

      .cls-24 {
        fill: #5e92dd;
        opacity: .4;
      }

      .cls-25 {
        fill: #f9e5d1;
      }

      .cls-26 {
        fill: #d2e3fc;
      }

      .cls-27 {
        fill: #ebf3fa;
      }

      .cls-28 {
        fill: #95c0f4;
      }
    </style>
  </defs>
  <rect class="cls-2" width="3000" height="977.97"/>
  <g>
    <path class="cls-27" d="m330.07,970.07s-306.29-229.72-51.8-478.42c225.8-220.67,489.07-205.58,682.22-116.04,82.27,38.14,319.45,4.7,521.32-219.84,275.3-306.21,1229.59-120.49,1055.59,350.62-84.2,227.98,256.26,236.27,82.78,464.16l-2290.12-.48Z"/>
    <g>
      <path class="cls-6" d="m1466.19,124.16h360.73c17.86,0,32.35,14.5,32.35,32.35v742.53c0,17.86-14.5,32.35-32.35,32.35h-360.73c-17.86,0-32.35-14.5-32.35-32.35V156.52c0-17.86,14.5-32.35,32.35-32.35Z"/>
      <path class="cls-3" d="m1881.76,145.93v763.7c0,11.97-9.8,21.77-21.77,21.77h-381.89c-11.98,0-21.77-9.8-21.77-21.77V145.93c0-11.98,9.79-21.77,21.77-21.77h381.89c11.98,0,21.77,9.8,21.77,21.77Z"/>
      <g>
        <path class="cls-24" d="m1731.39,154.72h-110.59c-2.37,0-4.3-1.94-4.3-4.3h0c0-2.37,1.94-4.3,4.3-4.3h110.59c2.37,0,4.3,1.94,4.3,4.3h0c0,2.37-1.94,4.3-4.3,4.3Z"/>
        <path class="cls-24" d="m1601.15,154.72h0c-2.37,0-4.3-1.94-4.3-4.3h0c0-2.37,1.94-4.3,4.3-4.3h0c2.37,0,4.3,1.94,4.3,4.3h0c0,2.37-1.94,4.3-4.3,4.3Z"/>
      </g>
      <path class="cls-28" d="m1702.06,886.8c0,7.62-3.08,14.52-8.05,19.54-5.03,5.08-12,8.22-19.71,8.22-15.33,0-27.75-12.43-27.75-27.75,0-9.85,5.13-18.5,12.88-23.42,4.3-2.74,9.4-4.32,14.88-4.32,15.33,0,27.75,12.42,27.75,27.75Z"/>
      <rect class="cls-28" x="1481.8" y="173.89" width="377.26" height="671.51"/>
      <path class="cls-21" d="m1694.01,906.33c-5.03,5.08-12,8.22-19.71,8.22-15.33,0-27.75-12.43-27.75-27.75,0-9.85,5.13-18.5,12.88-23.42,2.72,11.81,10.78,31.58,34.58,42.96Z"/>
    </g>
    <path class="cls-5" d="m1853.63,254.18h-351.09c-2.98,0-5.42,3.16-5.42,7.03v224.47c0,3.86,2.44,7.02,5.42,7.02h351.09c2.99,0,5.43-3.16,5.43-7.02v-224.47c0-3.87-2.44-7.03-5.43-7.03Z"/>
    <path class="cls-5" d="m1722.64,526.88h-273.72c-2.32,0-4.23,3.16-4.23,7.03v224.47c0,3.86,1.9,7.02,4.23,7.02h273.72c2.33,0,4.23-3.16,4.23-7.02v-224.47c0-3.87-1.9-7.03-4.23-7.03Z"/>
    <g>
      <path class="cls-4" d="m1987.1,240.98v224.47c0,3.86-3.16,7.02-7.03,7.02h-454.58c-3.86,0-7.02-3.16-7.02-7.02v-224.47c0-3.87,3.16-7.03,7.02-7.03h454.58c3.87,0,7.03,3.16,7.03,7.03Z"/>
      <path class="cls-7" d="m1987.1,240.98v224.47c0,3.86-3.67,7.02-8.17,7.02h-226.14v-238.52h226.14c4.5,0,8.17,3.16,8.17,7.03Z"/>
      <g>
        <path class="cls-4" d="m1863.79,321.08h-80c-2.8,0-5.09-2.29-5.09-5.09h0c0-2.8,2.29-5.1,5.09-5.1h80c2.8,0,5.09,2.29,5.09,5.1h0c0,2.8-2.29,5.09-5.09,5.09Z"/>
        <rect class="cls-4" x="1778.69" y="326.18" width="69.81" height="10.19" rx="2.77" ry="2.77"/>
      </g>
      <g>
        <path class="cls-4" d="m1784.84,264c1.91-2.53,4.44-3.79,7.52-3.79s5.56,1.26,7.48,3.76c1.92,2.49,2.86,5.6,2.86,9.32s-.94,6.83-2.86,9.32c-1.91,2.49-4.41,3.76-7.48,3.76s-5.6-1.26-7.52-3.76c-1.92-2.49-2.85-5.6-2.85-9.32s.94-6.79,2.85-9.29Zm13.04,1.73c-1.45-2.02-3.29-3.03-5.53-3.03s-4.08,1.01-5.53,3.03c-1.44,2.02-2.17,4.55-2.17,7.55s.72,5.56,2.13,7.59c1.45,1.99,3.29,3,5.56,3s4.12-1.01,5.53-3c1.45-2.02,2.17-4.55,2.17-7.59s-.72-5.53-2.17-7.55Z"/>
        <path class="cls-4" d="m1823.32,263.35c1.7,2.06,2.57,4.99,2.57,8.71.14,7.88-4.12,14.38-10.99,14.31-2.06,0-3.87-.51-5.35-1.55v-2.57c1.59,1.08,3.29,1.63,5.13,1.63,6,0,8.49-5.46,8.6-10.8-1.34,2.28-3.97,3.76-7.41,3.76-2.28,0-4.23-.76-5.82-2.24-1.55-1.52-2.35-3.47-2.35-5.82,0-2.49.83-4.52,2.46-6.14,1.66-1.63,3.72-2.42,6.14-2.42,2.96,0,5.31,1.05,7.01,3.14Zm-11.24,1.08c-1.16,1.12-1.73,2.57-1.73,4.34s.58,3.11,1.77,4.16c1.19,1.05,2.64,1.55,4.41,1.55,1.48,0,2.85-.47,4.12-1.41,1.27-.94,2.1-2.1,2.57-3.5-.43-4.34-2.82-6.87-6.76-6.87-1.73,0-3.18.58-4.37,1.73Z"/>
        <path class="cls-4" d="m1831.23,269.49c.72-.72,1.95-.72,2.67,0,.72.72.72,1.95,0,2.67-.72.72-1.95.72-2.67,0-.72-.72-.72-1.95,0-2.67Zm0,13.44c.72-.72,1.95-.72,2.67,0,.72.72.72,1.95,0,2.67-.72.72-1.95.72-2.67,0-.72-.72-.72-1.95,0-2.67Z"/>
        <path class="cls-4" d="m1843.73,285.93v-22.4l-5.67,3.25v-2.57l5.96-3.58h2.35v25.29h-2.64Z"/>
        <path class="cls-4" d="m1855.59,264c1.91-2.53,4.44-3.79,7.52-3.79s5.56,1.26,7.48,3.76c1.91,2.49,2.85,5.6,2.85,9.32s-.94,6.83-2.85,9.32c-1.91,2.49-4.41,3.76-7.48,3.76s-5.6-1.26-7.52-3.76c-1.92-2.49-2.85-5.6-2.85-9.32s.94-6.79,2.85-9.29Zm13.04,1.73c-1.44-2.02-3.29-3.03-5.53-3.03s-4.08,1.01-5.53,3.03c-1.45,2.02-2.17,4.55-2.17,7.55s.72,5.56,2.13,7.59c1.45,1.99,3.29,3,5.56,3s4.12-1.01,5.53-3c1.45-2.02,2.17-4.55,2.17-7.59s-.72-5.53-2.17-7.55Z"/>
        <path class="cls-4" d="m1889.01,285.93v-25.29h10.62c5.06,0,8.09,2.82,8.09,7.01s-3.04,7.12-8.09,7.12h-7.95v11.16h-2.67Zm2.67-13.59h7.77c3.58,0,5.64-1.7,5.64-4.63s-2.06-4.66-5.64-4.66h-7.77v9.29Z"/>
        <path class="cls-4" d="m1913.04,285.93v-25.29h2.64l9.14,12.25,9.14-12.25h2.6v25.29h-2.64v-21.25l-8.28,11.06h-1.63l-8.35-11.06v21.25h-2.64Z"/>
      </g>
      <path class="cls-25" d="m1653.38,472.47h-127.89c-3.86,0-7.02-3.16-7.02-7.02v-152.54c34.86,41.19,103.13,121.94,134.91,159.56Z"/>
      <path class="cls-7" d="m1634.76,263.5c-25.59,0-46.34,20.75-46.34,46.34s46.34,82.49,46.34,82.49c0,0,46.34-56.89,46.34-82.49s-20.75-46.34-46.34-46.34Zm0,67.52c-11.96,0-21.66-9.7-21.66-21.66s9.7-21.66,21.66-21.66,21.66,9.7,21.66,21.66-9.7,21.66-21.66,21.66Z"/>
      <g>
        <path class="cls-10" d="m1630.86,430.78h-80c-2.8,0-5.1-2.29-5.1-5.1h0c0-2.8,2.29-5.1,5.1-5.1h80c2.8,0,5.1,2.29,5.1,5.1h0c0,2.8-2.29,5.1-5.1,5.1Z"/>
        <rect class="cls-10" x="1545.77" y="435.88" width="69.82" height="10.19" rx="2.77" ry="2.77"/>
      </g>
    </g>
    <g>
      <path class="cls-4" d="m1762.63,516.67v224.47c0,3.87-3.16,7.03-7.02,7.03h-454.57c-3.87,0-7.03-3.16-7.03-7.03v-224.47c0-3.86,3.16-7.02,7.03-7.02h454.57c3.87,0,7.02,3.16,7.02,7.02Z"/>
      <path class="cls-7" d="m1762.63,516.67v224.47c0,3.87-3.16,7.03-7.02,7.03h-202.18v-238.52h202.18c3.86,0,7.02,3.16,7.02,7.02Z"/>
      <g>
        <path class="cls-4" d="m1656.5,677.52c-4.02,0-7.75-2.13-9.78-5.61l-29.88-51.08c-3.16-5.41-1.34-12.35,4.06-15.51,5.4-3.16,12.35-1.34,15.51,4.06l19.17,32.77,36.09-74.26c2.74-5.63,9.52-7.98,15.15-5.24,5.63,2.74,7.98,9.52,5.24,15.15l-45.37,93.34c-1.83,3.76-5.58,6.21-9.76,6.37-.15,0-.29,0-.44,0Z"/>
        <path class="cls-4" d="m1656.5,703.8c-38.8,0-70.37-31.57-70.37-70.37s31.57-70.37,70.37-70.37,70.37,31.57,70.37,70.37-31.57,70.37-70.37,70.37Zm0-132.5c-34.26,0-62.13,27.87-62.13,62.13s27.87,62.13,62.13,62.13,62.13-27.87,62.13-62.13-27.87-62.13-62.13-62.13Z"/>
      </g>
      <path class="cls-25" d="m1427.15,748.16h-126.11c-3.87,0-7.03-3.16-7.03-7.03v-173.7l133.14,180.73Z"/>
      <g>
        <g>
          <path class="cls-7" d="m1355,548.58c-13.92,0-25.21,11.28-25.21,25.21s11.29,25.21,25.21,25.21,25.21-11.28,25.21-25.21-11.29-25.21-25.21-25.21Zm17.46,26.01h-17.46c-.44,0-.8-.36-.8-.8v-18.77c0-.44.36-.8.8-.8s.8.36.8.8v17.97h16.65c.44,0,.8.36.8.8s-.36.8-.8.8Z"/>
          <g>
            <path class="cls-10" d="m1484.69,564.41h-80c-2.8,0-5.1-2.29-5.1-5.1h0c0-2.8,2.29-5.09,5.1-5.09h80c2.8,0,5.1,2.29,5.1,5.09h0c0,2.8-2.29,5.1-5.1,5.1Z"/>
            <rect class="cls-10" x="1399.59" y="569.5" width="69.82" height="10.19" rx="2.77" ry="2.77"/>
          </g>
        </g>
        <g>
          <path class="cls-7" d="m1352.48,646.15c-12.53,0-22.69,10.16-22.69,22.69s22.69,40.39,22.69,40.39c0,0,22.69-27.86,22.69-40.39s-10.16-22.69-22.69-22.69Zm0,33.06c-5.86,0-10.61-4.75-10.61-10.61s4.75-10.61,10.61-10.61,10.61,4.75,10.61,10.61-4.75,10.61-10.61,10.61Z"/>
          <g>
            <path class="cls-10" d="m1478.61,662.69h-80c-2.8,0-5.09-2.29-5.09-5.09h0c0-2.8,2.29-5.1,5.09-5.1h80c2.8,0,5.09,2.29,5.09,5.1h0c0,2.8-2.29,5.09-5.09,5.09Z"/>
            <rect class="cls-10" x="1393.51" y="667.78" width="69.81" height="10.19" rx="2.77" ry="2.77"/>
          </g>
        </g>
      </g>
    </g>
    <g>
      <g>
        <path class="cls-17" d="m500.7,677.27c-1.67-40.97-5.26-76.61-9.56-101.47-6.85-39.62-13.02-62.42-13.09-62.66-.9-3.48-13.94-17.58-42.93-17.15-28.99.43-26.24,18.92-26.24,18.92h0c0,.62.08,1.21.21,1.64.28.95,26.89,97.45,25.74,222.03-.02,1.75-.21,4.77-.09,6.79,0,0,67.18,1.73,67.2,0,2.34-10.89,1.2-41.06-1.24-68.11Z"/>
        <path class="cls-26" d="m509.15,737.97c-.02,1.74-.94,3.13-2.05,3.13h-.03c-1.12-.03-2.01-1.42-2.02-3.13h-57.58c-.02,1.74-.94,3.13-2.05,3.13h-.03c-1.14-.03-2.04-1.46-2.03-3.22.33-35.66-1.7-68.97-4.78-98.36-7.65-73.3-21.8-122.29-22-122.97-.13-.44-.21-1.02-.21-1.64,0,0-2.75-18.49,26.24-18.93,29-.44,42.03,13.66,42.94,17.15.05.18,3.55,13.09,8.19,36.3,1.54,7.69,3.2,16.5,4.9,26.36,4.3,24.86,7.89,60.5,9.55,101.47,2.44,27.05,3.29,49.83.95,60.71Z"/>
        <path class="cls-20" d="m439.11,741.1h225.73s-5.26-21.27-135.99-18.1c-92.51,2.24-89.74,18.1-89.74,18.1Z"/>
        <path class="cls-17" d="m420.73,963.29c26.17-132.49,19.44-213.8,19.41-214.82-.07-2.04,3.69-3.89,5.72-3.96,2.05-.04,11.08-.6,12.13,1.14,1.37,2.29,6.64,102.46-32.37,217.64h-4.89Z"/>
        <path class="cls-17" d="m631.5,963.29c-26.17-132.49-19.44-213.8-19.41-214.82.07-2.04-3.69-3.89-5.72-3.96-2.05-.04-11.08-.6-12.13,1.14-1.37,2.29-6.64,102.46,32.37,217.64h4.89Z"/>
        <path class="cls-17" d="m673.26,963.29c-26.17-132.49-19.44-213.8-19.41-214.82.07-2.04-3.69-3.89-5.72-3.96-2.05-.04-11.08-.6-12.13,1.14-1.37,2.29-6.64,102.46,32.37,217.64h4.89Z"/>
        <path class="cls-17" d="m462.78,963.29c26.17-132.49,19.44-213.8,19.41-214.82-.07-2.04,3.69-3.89,5.72-3.96,2.05-.04,11.08-.6,12.13,1.14,1.37,2.29,6.64,102.46-32.37,217.64h-4.89Z"/>
        <rect class="cls-17" x="434.62" y="735.6" width="234.98" height="12.29" rx="3.33" ry="3.33"/>
        <g>
          <path class="cls-19" d="m657.04,544.03l75.03-16.25,4.42,10.77s-82.79,49.26-90.55,46.85c-7.76-2.41,11.1-41.37,11.1-41.37Z"/>
          <path class="cls-19" d="m588.82,883.39c-1.88,2.15-2.12,4.56-1.19,7.13,0,.01,0,.03.02.04,1.72,4.75,7.4,10.06,14,15.36.84.68,1.59,1.3,2.25,1.87.17.15.34.3.5.45.13.12.26.24.39.35,6.16,5.67,3.84,6.97,14.9,18.49,12.61,13.12,21.29,13.35,23.76,12.16,2.09-1.02-2.16-7.98-6.86-15.8-.23-.38-.45-.76-.69-1.14-.63-1.04-1.25-2.1-1.87-3.14-5.51-9.41-4.1-13.83-2.79-27.84,1.06-11.38,17.71-63.59,17.71-63.59l-24.16-4.16s-7.28,41.57-15.29,47.98c-4.29,3.41-9.09,3.46-13.21,5.99-.29.18-.58.36-.86.54-2.34,1.55-4.73,3.15-6.61,5.31Z"/>
          <path class="cls-8" d="m588.82,883.39c-1.88,2.15-2.12,4.56-1.19,7.13,0,.01,0,.03.02.04,2.11,4.75,7.65,10.03,14.03,15.31.83.69,1.57,1.33,2.22,1.92.17.15.34.3.5.45.13.12.26.24.39.35,6.16,5.67,3.84,6.97,14.9,18.49,12.61,13.12,21.29,13.35,23.76,12.16,2.09-1.02-2.16-7.98-6.86-15.8-2.46-.9-13.86-5.53-22.48-16.56-7.59-9.69-12.66-22.14-17.83-29.35-.29.18-.58.36-.86.54-2.34,1.55-4.73,3.15-6.61,5.31Z"/>
          <path class="cls-19" d="m783.66,868.3c1.49,7.46,12.12,6.21,24,3.31,11.88-2.9,9.05.55,25.96-1.32,16.91-1.87,22.03-8.17,22.54-10.69.46-2.23-7.89-3.02-16.85-4.05-1.13-.13-2.26-.27-3.39-.41-10.12-1.27-17.52-7.8-26.71-13.16-8.7-5.08-21.69-25.77-21.69-25.77l-23.18,1.84s12.17,18.48,16.87,26.51c2.77,4.73,2.62,10.97,2.28,15.8-.18,2.62-.35,5.3.18,7.93Z"/>
          <path class="cls-8" d="m807.66,871.61c11.88-2.9,9.05.55,25.96-1.32,16.91-1.87,22.03-8.17,22.54-10.69.46-2.23-7.89-3.02-16.85-4.05l-.08.17s-10.14,7.19-24.21,7.53c-11.47.28-23.62-3.01-31.54-2.88-.18,2.62-.35,5.3.18,7.93,1.49,7.46,12.12,6.21,24,3.31Z"/>
          <path class="cls-19" d="m732.08,527.78s5.52-13.53,11.6-14.09c6.08-.55,25.41-3.59,26.79-.83,1.38,2.76,0,12.7-4.14,16.29-4.14,3.59-29.83,9.39-29.83,9.39l-4.42-10.77Z"/>
          <path class="cls-23" d="m694.81,720.05l-49.97,134.47s-7.68.74-15.04-1.38c-6.77-1.95-14.53-7.08-14.53-7.08,0,0,12.39-129.11,35.12-155.97,22.72-26.85,44.41,29.95,44.41,29.95Z"/>
          <path class="cls-8" d="m497.19,665.65s143.57-48.55,175.59-38.22c32.02,10.33,128.16,201.6,128.16,201.6,0,0-2.17,2.89-8.09,5.11-5.51,2.07-18.84,1.93-18.84,1.93,0,0-86.76-74.37-97.09-96.06-10.33-21.69-14.46-42.35-24.79-40.28-10.33,2.07-133.24,50.61-161.13,21.69-27.89-28.92-20.59-66.5-20.59-66.5l26.79,10.72Z"/>
          <path class="cls-11" d="m579.04,323.33c-6.21-3.53-13.64-3.91-18.84-3.61,1.34-1.38,3.97-1.89,3.97-1.89-3.23-.48-10.43,2.72-10.43,2.72-44.87-17.29-51.92,48.78-50.98,64.13.94,15.35,1.05,33.02-21.35,46.78-44.07,27.09-6.89,74.37-6.89,74.37.35.2,20.51,34.4,20.51,34.4-1.13-12.4,56.1-77.86,85.96-97.46,7.27-10.7,9.85-29.6,10.05-31.09-1.25,14.99-3.82,23.4-6.11,28.13,25.28-23.27,10.56-107.13-5.89-116.48Z"/>
          <path class="cls-19" d="m579.22,443.75c.15.07-14.42,7.63-25.37,4.63-10.31-2.81-17.04-16.17-16.9-16.2,4.36-.87,5.62-6.86,5.53-32.64l1.97.39,33.18,6.57s-.76,10.44-.78,20.28c-.02,8.26.48,16.09,2.37,16.97Z"/>
          <path class="cls-14" d="m577.63,406.5s-.76,10.44-.78,20.28c-18.56-.52-28.38-17.46-32.4-26.85l33.18,6.57Z"/>
          <path class="cls-11" d="m541.03,396.32s-9.73-15.37-12.06-28.52c-1.67-9.38,3.11-44.17,38.07-39.16,0,0,10.15,1,19.7,7.45,7.59,5.13,18.54,16.19,6.3,46.55l-3.18,10.25-48.81,3.43Z"/>
          <path class="cls-19" d="m583.83,415.81s-43.92.72-43.95-26.64c-.03-27.36-5.72-45.69,22.32-47.31,28.04-1.62,33.5,8.81,35.73,17.94,2.23,9.13-2.68,55.11-14.1,56Z"/>
          <path class="cls-11" d="m582.21,341.2s-12.03,32.1-30.48,36.85c-18.46,4.75-26.46-.2-26.46-.2,0,0,14.16-11.25,17.09-30.88,0,0,30.78-21.05,39.85-5.77Z"/>
          <path class="cls-11" d="m579.22,343.8s8.98,7.17,11.17,14.13c2.19,6.97,3.17,21.31,7.35,20.82,0,0,9.06-21.82-1.12-34.16-10.8-13.09-17.4-.8-17.4-.8Z"/>
          <path class="cls-8" d="m481.41,561.92c-4.33-18.17,10.41-53.42,25.79-82.6,13.96-26.45,28.45-47.91,29.75-47.14,36.81,21.85,40.14,3.68,40.14,3.68h0s33.44,4.44,42.91,20.74c11.74,20.22,24.43,76.73,37.04,87.43-1.94,5.92-1.1,9.08.95,16.42.44,1.57.92,3.07,1.46,4.49,1.9,5.16,4.28,9.35,6.33,12.99-6.41,3.89-18.78,11.3-27.89,5.97-13.9-8.13-24.74-32.89-30.84-42.75-.02-.04-.05-.07-.07-.11-13.26,75.08,4.77,92.17-4.36,100.09-9.64,8.36-23.41-3.98-53.71,9.15-19.87,8.62-47.45,21.09-66.02,23.26-9.74,1.14-17-.55-19.37-7.13-6.89-19.11,26.17-69.86,17.9-104.49Z"/>
          <path class="cls-2" d="m574.07,399.23s.82,3.48,9.47,2.94c0,0,7.26-.45,7.04-4.27,0,0-7.04-2.72-16.5,1.33Z"/>
          <path class="cls-23" d="m463.51,666.41c2.37,6.58,9.63,8.27,19.37,7.13,12.85-5.6,68.36-27.1,67.74-41.68-.92-21.57-10.67-22.26-3.79-48.89,5.53-21.38-45.76-61.14-53.94-69.78-15.38,29.18-15.81,30.56-11.48,48.73,8.26,34.63-24.79,85.38-17.9,104.49Z"/>
          <path class="cls-8" d="m457.23,588.6c9.84-13.82,20.1-21.13,26.85-24.81-1.55-4,41.41-56.67,41.41-64.83s11.46-66.78,11.46-66.78c0,0-35.8,2.21-48.19,19.49-15.5,21.62-47.69,104.81-31.53,136.93Z"/>
          <path class="cls-19" d="m484.08,563.79l71.53,18.67-6.71,12.05s-87.05-.61-91.67-5.91c-4.61-5.3,26.85-24.81,26.85-24.81Z"/>
          <path class="cls-23" d="m607.04,541.15c6.1,9.86,16.94,34.62,30.84,42.75,9.12,5.32,21.49-2.08,27.89-5.97-2.05-3.64-4.43-7.83-6.33-12.99-5.11,1.17-11.35,2.66-15.38,3.88-7.83,2.37-37.03-27.66-37.03-27.66Z"/>
          <path class="cls-19" d="m555.61,582.45s22.46-6.36,27.81-4.87c5.35,1.49,23.68,13.62,21.11,16.92-2.58,3.3-18.73-1.97-26.16-.98-7.43,1-13.18,4.67-18.53,3.87-5.35-.79-10.95-2.9-10.95-2.9l6.71-12.05Z"/>
          <path class="cls-19" d="m555.61,582.45s10.99-5.65,14.12-8.86c.39-.41,1.06-.32,1.36.16.84,1.32,1.62,3.87-2.23,6.41-5.55,3.65-13.25,2.29-13.25,2.29Z"/>
        </g>
      </g>
      <g>
        <path class="cls-18" d="m659.43,614.06h-104.8c0-4.61,3.74-8.35,8.35-8.35h96.45v8.35Z"/>
        <polygon class="cls-18" points="659.12 499.92 821.16 499.92 782.29 614.06 619.21 614.06 659.12 499.92"/>
        <polygon class="cls-7" points="823.55 499.92 784.68 614.05 621.6 614.05 661.51 499.92 823.55 499.92"/>
        <path class="cls-15" d="m736.19,555.93c-1.01,4.36-5.36,7.9-9.72,7.9s-7.08-3.54-6.07-7.9c1.01-4.36,5.36-7.9,9.72-7.9s7.08,3.54,6.07,7.9Z"/>
        <path class="cls-16" d="m823.55,499.92l-38.87,114.14h-108c71.54-24.42,90.59-98.87,93.78-114.14h53.09Z"/>
      </g>
    </g>
    <g>
      <path class="cls-28" d="m353.14,963.29c2.05,0,3.8-1.44,4.15-3.41l20.35-115.35,29.27-165.9,8.19-46.39-20.85-.6-3.62,26.93-25.4,189.25-15.06,112.18c-.23,1.74,1.16,3.28,2.96,3.28Z"/>
      <path class="cls-6" d="m390.64,658.58c13.51,5.96,16.28,20.06,16.28,20.06l8.19-46.39-20.85-.6-3.62,26.93Z"/>
    </g>
    <g>
      <path class="cls-28" d="m871.73,963.29c-2.05,0-3.8-1.44-4.15-3.41l-20.35-115.35-29.27-165.9-8.19-46.39,20.85-.6,3.62,26.93,25.4,189.25,15.06,112.18c.23,1.74-1.16,3.28-2.96,3.28Z"/>
      <path class="cls-6" d="m834.24,658.58c-13.51,5.96-16.28,20.06-16.28,20.06l-8.19-46.39,20.85-.6,3.62,26.93Z"/>
    </g>
    <path class="cls-6" d="m336.4,614.03h539.58c5.46,0,9.89,4.43,9.89,9.89v16.66c0,5.46-4.43,9.89-9.89,9.89H336.4c-5.46,0-9.89-4.43-9.89-9.89v-16.66c0-5.46,4.43-9.89,9.89-9.89Z" transform="translate(1212.38 1264.49) rotate(180)"/>
    <rect class="cls-9" x="301.75" y="965.91" width="2323.84" height="6.16" rx="1.32" ry="1.32"/>
    <g>
      <path class="cls-19" d="m1976.05,373.48s-7.45-24.05-11.69-26.63c-4.23-2.59-21.88-11.29-22.93-8.93-1.05,2.35,9.53,13.77,11.88,17.58,2.35,3.81,3.53,7.57,1.88,5.93-1.65-1.65-10.58-7.15-11.52-5.93-.94,1.22,4.47,5.93,7.05,9.69,2.59,3.76,5.41,10.11,14.58,11.52,9.17,1.41,10.75-3.23,10.75-3.23Z"/>
      <path class="cls-19" d="m2247.76,575.95s-2.23,21.72-4.69,25.83c-2.45,4.11-12.89,17.24-17.34,19.82-4.45,2.58,2.72-17.3,1.81-21.17-.91-3.87-3.66,7.06-5.62,7.32-1.96.26-1.46-9.58-1.53-13.16-.07-3.58,9.54-12.41,12.92-20.03,3.39-7.62,14.44,1.4,14.44,1.4Z"/>
      <path class="cls-22" d="m2179.64,353.08s-18.06,88.65-117.46,117.61c-31.03,9.04-101.51-93.11-101.51-93.11,0,0,2.48-9.42,18-7.25,0,0,68.63,45.44,77.27,50.37,7.67,4.38,58.09-56.3,81.07-66.09,22.98-9.79,42.62-1.54,42.62-1.54Z"/>
      <g>
        <path class="cls-22" d="m2298.31,910.36s12.33,11.25,9.92,19.25c-2.41,8-13.53,13.33-15.04,23.1-1.5,9.77-7.52,15.1-12.93,15.1h-25.81s-3.98-6.88,5.64-8.95c9.62-2.07,13.25-13.56,12.65-24.22-.6-10.66.9-24.87.9-24.87l20.45-4.74,4.21,5.33Z"/>
        <path class="cls-22" d="m2147.03,939.46s2.21,25.61-3.2,28.27l-69.28-.14s0-8,11.13-9.77c11.13-1.78,30.68-8.29,33.98-22.8,3.31-14.51,27.37,4.44,27.37,4.44Z"/>
        <path class="cls-7" d="m2088.54,577.71s3.65,44.89,7.95,98.85c5.84,73.3,12.86,163.34,13.55,180.39,1.2,29.62,6.02,77,6.02,77,0,0,11.42,11.26,34.28,6.51,0,0,20.37-67.63,26.19-139.19.09-1.17.18-2.35.27-3.54,5.41-72.85,13.83-226.24,13.83-226.24l-102.1,6.22Z"/>
        <path class="cls-18" d="m2088.54,577.71s3.65,44.89,7.95,98.85l80.05,124.71c.09-1.17.18-2.35.27-3.54,5.41-72.85,13.83-226.24,13.83-226.24l-102.1,6.22Z"/>
        <path class="cls-7" d="m2105.23,583.04s65.86,162.57,109.17,238.97c43.31,76.4,56.84,97.72,56.84,97.72,0,0,24.81-9.77,27.07-16.44,0,0-16.56-147.5-45.56-183.45-16.39-20.32-35.64-81.29-36.54-102.61-.9-21.32-5.86-63.52-5.86-63.52l-105.11,29.32Z"/>
      </g>
      <path class="cls-19" d="m2191.89,332.51s-44.56,21.5-70.25,13.52c0,0,6.32-7.98,17.39-13.91-.89-5.16-1.58-9.63-1.98-13.43-1.09-8.76-1.09-13.72-1.09-13.72l17.19-13.52,16.3-12.94c-1.28,36.39,22.43,54,22.43,54Z"/>
      <path class="cls-1" d="m2215.37,562.05c.1,2.73-5.73,5.84-8.3,7-19.06,8.37-36.85,14.21-57.01,16.15-23.81,2.43-51.97-2.92-61.66-2.72-.99,0-1.88-.39-2.67-1.07-.69-.49-1.18-29.19-.69-65.29,0-1.45,0-2.91.1-4.37v-.49c.2-14.11.69-28.9,1.38-43.69,1.38-32.49,3.96-63.82,8.3-81.14,5.23-20.43,17.1-33.95,27.87-43.79l8.89-7.78c8.89,1.75,18.28,1.26,27.67-3.31,10.28-4.96,21.34-10.31,23.12-8.95,13.44,9.83,22.53,31.91,27.37,60.13.02.14.05.28.07.42,2.72,16.14,4.08,34.19,3.98,53.09,0,7.01-.2,14.21-.59,21.31-1.98,32.18-.66,60.82.64,80.67.25,3.92.52,7.5.74,10.69.39,5.64.69,10.02.79,13.13Z"/>
      <path class="cls-22" d="m2213.84,538.23c-73.87-85.29-28.04-147.27-28.04-147.27l24.02-7.79c2.72,16.14,4.08,34.19,3.98,53.09,0,7.01-.2,14.21-.59,21.31-1.98,32.18-.66,60.82.64,80.67Z"/>
      <path class="cls-13" d="m2169.75,292.42s-11.26,20.53-32.71,26.27c-1.09-8.76-1.09-13.72-1.09-13.72l17.19-13.52,16.6.97Z"/>
      <path class="cls-19" d="m2128.12,304.38s42.51,6.95,46.5-19.18c3.99-26.13,12.16-42.84-14.81-48.38-26.97-5.54-33.78,3.65-37.27,12.05-3.49,8.4-5.38,53.03,5.58,55.51Z"/>
      <path class="cls-12" d="m2190.07,233.69c.39-.44,1.28-.8,3.26-.91,0,0-1.58-.99-3.7-1.04-.41-2.75-1.88-7.63-6.62-8.82,0,0,2.55,1.36,2.88,4.29-5.49-5.64-17.26-9.74-49.84-7.17-42.94,3.39-28.79,30.88-23.23,34.16,5.56,3.28,19.55-5.71,29.91-4.89,10.36.82,12.33,15.79,15.84,17.84,3.51,2.05,2.13-1.58,6.89-3.73,4.75-2.15,5.21,5.73,3.83,10.85-1.37,5.12,5.16,11.88,5.16,11.88l6.6-7.11c6.6-7.11,12.82-37.22,9.82-43.64-.26-.57-.53-1.14-.8-1.72Z"/>
      <path class="cls-1" d="m2182.35,322.4s26.9,12.74,39.79,32.32c20,30.37,43.19,141.07,43.62,151.32.43,10.25-16.92,82.62-16.92,82.62,0,0-17.6-1.16-22.14-10.04,0,0,3.52-74.36,1.29-79.14-2.23-4.78-73.37-99.74-65.37-120.01,8-20.26,19.73-57.07,19.73-57.07Z"/>
    </g>
    <rect class="cls-4" x="1802.69" y="413.42" width="139.65" height="38.31" rx="10.4" ry="10.4"/>
    <g>
      <path class="cls-7" d="m1872.29,440.94c-.75,0-1.45-.4-1.83-1.05l-5.57-9.53c-.59-1.01-.25-2.3.76-2.89,1.01-.59,2.3-.25,2.89.76l3.58,6.11,6.73-13.86c.51-1.05,1.78-1.49,2.83-.98,1.05.51,1.49,1.78.98,2.83l-8.46,17.42c-.34.7-1.04,1.16-1.82,1.19-.03,0-.05,0-.08,0Z"/>
      <path class="cls-7" d="m1872.29,445.85c-7.24,0-13.13-5.89-13.13-13.13s5.89-13.13,13.13-13.13,13.13,5.89,13.13,13.13-5.89,13.13-13.13,13.13Zm0-24.72c-6.39,0-11.59,5.2-11.59,11.59s5.2,11.59,11.59,11.59,11.59-5.2,11.59-11.59-5.2-11.59-11.59-11.59Z"/>
    </g>
    <g>
      <path class="cls-26" d="m1168.9,350.65h-113.36c-14.89,0-27.08,12.19-27.08,27.08v42.89c0,6.81,2.55,13.04,6.73,17.81l-6.73,30.79,38.84-21.52h101.6c14.89,0,27.08-12.19,27.08-27.08v-42.89c0-14.89-12.19-27.08-27.08-27.08Z"/>
      <path class="cls-17" d="m1171.04,383.33h-117.53c-2.42,0-4.4-1.98-4.4-4.4h0c0-2.42,1.98-4.4,4.4-4.4h117.53c2.42,0,4.4,1.98,4.4,4.4h0c0,2.42-1.98,4.4-4.4,4.4Z"/>
      <path class="cls-17" d="m1171.04,402.58h-117.53c-2.42,0-4.4-1.98-4.4-4.4h0c0-2.42,1.98-4.4,4.4-4.4h117.53c2.42,0,4.4,1.98,4.4,4.4h0c0,2.42-1.98,4.4-4.4,4.4Z"/>
      <path class="cls-17" d="m1171.04,421.1h-117.53c-2.42,0-4.4-1.98-4.4-4.4h0c0-2.42,1.98-4.4,4.4-4.4h117.53c2.42,0,4.4,1.98,4.4,4.4h0c0,2.42-1.98,4.4-4.4,4.4Z"/>
    </g>
  </g>
</svg>